<mxfile><diagram id="KjrErTVRP9iZeqJHBAPl" name="Page-1"><mxGraphModel dx="502" dy="701" grid="1" gridSize="10" guides="1" tooltips="1" connect="1" arrows="1" fold="1" page="1" pageScale="1" pageWidth="850" pageHeight="1100" math="0" shadow="0"><root><mxCell id="0"/><mxCell id="1" parent="0"/><mxCell id="43" style="edgeStyle=none;html=1;exitX=0;exitY=0.5;exitDx=0;exitDy=0;entryX=0.7;entryY=1;entryDx=0;entryDy=0;entryPerimeter=0;endArrow=none;endFill=0;" edge="1" parent="1" source="2" target="25"><mxGeometry relative="1" as="geometry"><Array as="points"><mxPoint x="720" y="430"/></Array></mxGeometry></mxCell><mxCell id="2" value="" style="pointerEvents=1;verticalLabelPosition=bottom;shadow=0;dashed=0;align=center;html=1;verticalAlign=top;shape=mxgraph.electrical.miscellaneous.batteryStack;flipH=0;flipV=0;rotation=-90;" parent="1" vertex="1"><mxGeometry x="670" y="290" width="100" height="60" as="geometry"/></mxCell><mxCell id="52" style="edgeStyle=none;html=1;exitX=1;exitY=0.57;exitDx=0;exitDy=0;exitPerimeter=0;entryX=0.7;entryY=1;entryDx=0;entryDy=0;entryPerimeter=0;endArrow=none;endFill=0;" edge="1" parent="1" source="4" target="25"><mxGeometry relative="1" as="geometry"><Array as="points"><mxPoint x="310" y="433"/></Array></mxGeometry></mxCell><mxCell id="4" value="" style="verticalLabelPosition=bottom;shadow=0;dashed=0;align=center;html=1;verticalAlign=top;shape=mxgraph.electrical.opto_electronics.led_2;pointerEvents=1;direction=south;" parent="1" vertex="1"><mxGeometry x="282.5" y="316" width="70" height="100" as="geometry"/></mxCell><mxCell id="55" style="edgeStyle=none;html=1;exitX=1;exitY=0.115;exitDx=0;exitDy=0;exitPerimeter=0;endArrow=none;endFill=0;" edge="1" parent="1" source="5"><mxGeometry relative="1" as="geometry"><mxPoint x="547" y="220" as="targetPoint"/></mxGeometry></mxCell><mxCell id="57" style="edgeStyle=none;html=1;exitX=1;exitY=0.885;exitDx=0;exitDy=0;exitPerimeter=0;endArrow=none;endFill=0;" edge="1" parent="1" source="5"><mxGeometry relative="1" as="geometry"><mxPoint x="620" y="430" as="targetPoint"/><Array as="points"><mxPoint x="620" y="300"/></Array></mxGeometry></mxCell><mxCell id="5" value="" style="pointerEvents=1;verticalLabelPosition=bottom;shadow=0;dashed=0;align=center;html=1;verticalAlign=top;shape=mxgraph.electrical.electro-mechanical.2-way_switch;rotation=90;flipH=1;flipV=1;" parent="1" vertex="1"><mxGeometry x="520" y="324" width="75" height="26" as="geometry"/></mxCell><mxCell id="17" value="+" style="text;html=1;align=center;verticalAlign=middle;resizable=0;points=[];autosize=1;strokeColor=none;fillColor=none;" parent="1" vertex="1"><mxGeometry x="750" y="273" width="20" height="20" as="geometry"/></mxCell><mxCell id="18" value="-" style="text;html=1;align=center;verticalAlign=middle;resizable=0;points=[];autosize=1;strokeColor=none;fillColor=none;" parent="1" vertex="1"><mxGeometry x="750" y="350" width="20" height="20" as="geometry"/></mxCell><mxCell id="22" value="LED1&lt;br&gt;" style="text;html=1;align=center;verticalAlign=middle;resizable=0;points=[];autosize=1;strokeColor=none;fillColor=none;" parent="1" vertex="1"><mxGeometry x="240" y="396" width="50" height="20" as="geometry"/></mxCell><mxCell id="23" value="5V" style="text;html=1;align=center;verticalAlign=middle;resizable=0;points=[];autosize=1;strokeColor=none;fillColor=none;" parent="1" vertex="1"><mxGeometry x="770" y="324" width="30" height="20" as="geometry"/></mxCell><mxCell id="24" value="Cole Porter - TEJ3M - Unit #4-07" style="text;html=1;align=center;verticalAlign=middle;resizable=0;points=[];autosize=1;strokeColor=none;fillColor=none;" parent="1" vertex="1"><mxGeometry x="240" y="470" width="190" height="20" as="geometry"/></mxCell><mxCell id="58" style="edgeStyle=none;html=1;exitX=0.7;exitY=0;exitDx=0;exitDy=0;exitPerimeter=0;entryX=0;entryY=0.57;entryDx=0;entryDy=0;entryPerimeter=0;endArrow=none;endFill=0;" edge="1" parent="1" source="25" target="4"><mxGeometry relative="1" as="geometry"><Array as="points"><mxPoint x="400" y="316"/></Array></mxGeometry></mxCell><mxCell id="25" value="" style="verticalLabelPosition=bottom;shadow=0;dashed=0;align=center;html=1;verticalAlign=top;shape=mxgraph.electrical.transistors.npn_transistor_1;flipH=1;" parent="1" vertex="1"><mxGeometry x="367.95" y="333" width="95" height="100" as="geometry"/></mxCell><mxCell id="50" style="edgeStyle=none;html=1;exitX=1;exitY=0.5;exitDx=0;exitDy=0;exitPerimeter=0;entryX=0;entryY=0.885;entryDx=0;entryDy=0;entryPerimeter=0;endArrow=none;endFill=0;" edge="1" parent="1" source="28" target="5"><mxGeometry relative="1" as="geometry"/></mxCell><mxCell id="28" value="" style="pointerEvents=1;verticalLabelPosition=bottom;shadow=0;dashed=0;align=center;html=1;verticalAlign=top;shape=mxgraph.electrical.resistors.resistor_1;" parent="1" vertex="1"><mxGeometry x="462.95" y="373" width="100" height="20" as="geometry"/></mxCell><mxCell id="30" value="4.7K&amp;nbsp;Ω&amp;nbsp;" style="text;html=1;align=center;verticalAlign=middle;resizable=0;points=[];autosize=1;strokeColor=none;fillColor=none;" parent="1" vertex="1"><mxGeometry x="482.95" y="350" width="60" height="20" as="geometry"/></mxCell><mxCell id="40" value="INPUT A" style="text;html=1;align=center;verticalAlign=middle;resizable=0;points=[];autosize=1;strokeColor=none;fillColor=none;" parent="1" vertex="1"><mxGeometry x="505" y="150" width="60" height="20" as="geometry"/></mxCell><mxCell id="53" style="edgeStyle=none;html=1;exitX=0;exitY=0.5;exitDx=0;exitDy=0;exitPerimeter=0;endArrow=none;endFill=0;" edge="1" parent="1" source="47"><mxGeometry relative="1" as="geometry"><mxPoint x="720" y="270" as="targetPoint"/><Array as="points"><mxPoint x="720" y="220"/></Array></mxGeometry></mxCell><mxCell id="47" value="" style="pointerEvents=1;verticalLabelPosition=bottom;shadow=0;dashed=0;align=center;html=1;verticalAlign=top;shape=mxgraph.electrical.resistors.resistor_1;direction=south;" vertex="1" parent="1"><mxGeometry x="300" y="216" width="20" height="100" as="geometry"/></mxCell><mxCell id="49" value="220&amp;nbsp;&lt;span&gt;Ω&lt;br&gt;&lt;br&gt;&lt;/span&gt;" style="text;html=1;align=center;verticalAlign=middle;resizable=0;points=[];autosize=1;strokeColor=none;fillColor=none;" vertex="1" parent="1"><mxGeometry x="250" y="260" width="50" height="30" as="geometry"/></mxCell><mxCell id="59" value="INPUT A I output&lt;br&gt;0&amp;nbsp; &amp;nbsp; &amp;nbsp; &amp;nbsp; l&amp;nbsp; &amp;nbsp; &amp;nbsp;1&lt;br&gt;1&amp;nbsp; &amp;nbsp; &amp;nbsp; &amp;nbsp; &amp;nbsp;l&amp;nbsp; &amp;nbsp; &amp;nbsp;0&amp;nbsp;" style="text;html=1;align=center;verticalAlign=middle;resizable=0;points=[];autosize=1;strokeColor=none;fillColor=none;" vertex="1" parent="1"><mxGeometry x="440" y="475" width="100" height="50" as="geometry"/></mxCell></root></mxGraphModel></diagram></mxfile>